<svg width="22" height="17" viewBox="0 0 22 17" fill="none" xmlns="http://www.w3.org/2000/svg">
<path d="M9.94052 15.7831C10.0399 15.9274 10.1729 16.0455 10.328 16.127C10.4831 16.2085 10.6558 16.2511 10.831 16.2511C11.0063 16.2511 11.1789 16.2085 11.334 16.127C11.4891 16.0455 11.6221 15.9274 11.7215 15.7831L21.4715 1.69975C21.5844 1.53731 21.6506 1.34705 21.6629 1.14964C21.6752 0.952229 21.6332 0.755217 21.5414 0.58001C21.4496 0.404803 21.3115 0.258102 21.1422 0.155846C20.9729 0.0535904 20.7788 -0.000310206 20.581 1.34296e-06H1.08102C0.883681 0.000816453 0.6903 0.0554102 0.521671 0.157911C0.353042 0.260412 0.215545 0.406942 0.123966 0.581744C0.0323875 0.756545 -0.00980759 0.953004 0.00191836 1.14999C0.0136443 1.34698 0.0788477 1.53705 0.190517 1.69975L9.94052 15.7831Z" fill="#142a59"/>
</svg>
