<svg width="17" height="22" viewBox="0 0 17 22" fill="none" xmlns="http://www.w3.org/2000/svg">
<path d="M0.464725 11.7246L14.5481 21.4746C14.7106 21.587 14.9008 21.6529 15.0981 21.665C15.2953 21.6771 15.4921 21.635 15.6672 21.5433C15.8423 21.4516 15.9889 21.3137 16.0913 21.1446C16.1936 20.9756 16.2477 20.7817 16.2478 20.5841V1.08405C16.2479 0.886318 16.194 0.69232 16.0917 0.523082C15.9894 0.353843 15.8428 0.21582 15.6677 0.12397C15.4926 0.0321205 15.2957 -0.0100525 15.0983 0.00202201C14.901 0.0140965 14.7107 0.0799579 14.5481 0.192468L0.464725 9.94247C0.321247 10.0426 0.204071 10.1759 0.123161 10.331C0.0422515 10.4862 0 10.6585 0 10.8335C0 11.0085 0.0422515 11.1809 0.123161 11.336C0.204071 11.4911 0.321247 11.6244 0.464725 11.7246V11.7246Z" fill="#142a59"/>
</svg>
