<svg width="322" height="539" viewBox="0 0 322 539" fill="none" xmlns="http://www.w3.org/2000/svg">
<path d="M1 517H321V519C321 530.046 312.046 539 301 539H1V517Z" fill="#4A2A57"/>
<path d="M1 6H117.5L223.5 81.7658H321V518.273C321 518.273 321.5 522 308 522C294.5 522 1 522 1 522V6Z" fill="#F84753"/>
<line y1="-5" x2="100" y2="-5" transform="matrix(-1 0 0 1 321 88)" stroke="#F84753" stroke-width="10"/>
<line y1="-5" x2="113.004" y2="-5" transform="matrix(-0.999961 0.00884921 0.00884921 0.999961 114 11)" stroke="#F84753" stroke-width="10"/>
<line y1="-5" x2="138" y2="-5" transform="matrix(-0.819129 -0.57361 -0.57361 0.819129 221 88.1581)" stroke="#F84753" stroke-width="10"/>
<path d="M299.5 114.771V497C299.5 500.038 297.038 502.5 294 502.5H22C18.9624 502.5 16.5 500.038 16.5 497V41C16.5 37.9624 18.9624 35.5 22 35.5H111.965C113.099 35.5 114.205 35.8505 115.133 36.5036L212.592 105.157C214.277 106.344 216.274 107.009 218.334 107.069L294.16 109.273C297.134 109.36 299.5 111.795 299.5 114.771Z" stroke="#4A2A57" stroke-width="5"/>
</svg>
