<svg width="17" height="22" viewBox="0 0 17 22" fill="none" xmlns="http://www.w3.org/2000/svg">
<path d="M0.580666 21.5428C0.755912 21.634 0.952674 21.6757 1.14983 21.6634C1.34699 21.6512 1.5371 21.5856 1.69975 21.4735L15.7831 11.7235C15.927 11.6238 16.0446 11.4907 16.1258 11.3356C16.207 11.1805 16.2495 11.008 16.2495 10.833C16.2495 10.6579 16.207 10.4854 16.1258 10.3303C16.0446 10.1753 15.927 10.0422 15.7831 9.94247L1.69975 0.192468C1.53722 0.08001 1.34703 0.0141567 1.14976 0.00203858C0.952487 -0.0100796 0.755661 0.0319992 0.580591 0.123719C0.40552 0.215438 0.258877 0.353303 0.156538 0.522386C0.0542001 0.691469 6.67153e-05 0.885327 1.4715e-08 1.08297V20.583C-3.2573e-05 20.7807 0.0540616 20.9747 0.15642 21.1439C0.258777 21.3131 0.405494 21.451 0.580666 21.5428Z" fill="#142a59"/>
</svg>
