<svg width="22" height="17" viewBox="0 0 22 17" fill="none" xmlns="http://www.w3.org/2000/svg">
<path d="M1.08395 16.221H20.584C20.7814 16.2204 20.9749 16.166 21.1437 16.0635C21.3125 15.9611 21.4501 15.8146 21.5418 15.6398C21.6335 15.4649 21.6758 15.2684 21.6642 15.0713C21.6525 14.8742 21.5873 14.684 21.4755 14.5213L11.7255 0.437937C11.3215 -0.145979 10.3486 -0.145979 9.94346 0.437937L0.193455 14.5213C0.0805985 14.6837 0.0144169 14.874 0.0021005 15.0714C-0.0102159 15.2688 0.0318041 15.4658 0.123595 15.641C0.215386 15.8162 0.353437 15.9629 0.522749 16.0652C0.692062 16.1674 0.88616 16.2213 1.08395 16.221Z" fill="#142a59"/>
</svg>
